PathFileType	4	(X/Y/Z)	/home/nbianco/projects/addbio/data/OpenCap2022/Processed/subject11//results/MarkerData/walkingTS1.trc
DataRate	CameraRate	NumFrames	NumMarkers	Units	OrigDataRate	OrigDataStartFrame	OrigNumFrames
100	100	8	51	m	100	0	163
Frame#	Time	C7			L.ASIS			L.PSIS			L_5meta			L_HJC			L_HJC_reg			L_Shoulder			L_Sternum			L_ankle			L_calc			L_elbow_lat			L_elbow_med			L_forearm			L_humerus			L_knee			L_sh2			L_sh3			L_shank_antsup			L_thigh1			L_thigh2			L_thigh3			L_thigh4			L_toe			L_wrist_radius			L_wrist_ulna			R_HJC			R_HJC_reg			R_Shoulder			R_Sternum			R_elbow_lat			R_elbow_med			R_forearm			R_humerus			R_wrist_radius			R_wrist_ulna			r.ASIS			r.PSIS			r_5meta			r_ankle			r_calc			r_knee			r_sh2			r_sh3			r_sh4			r_shank_antsup			r_thigh1			r_thigh2			r_thigh3			r_thigh4			r_thigh5			r_toe		
		X1	Y1	Z1	X2	Y2	Z2	X3	Y3	Z3	X4	Y4	Z4	X5	Y5	Z5	X6	Y6	Z6	X7	Y7	Z7	X8	Y8	Z8	X9	Y9	Z9	X10	Y10	Z10	X11	Y11	Z11	X12	Y12	Z12	X13	Y13	Z13	X14	Y14	Z14	X15	Y15	Z15	X16	Y16	Z16	X17	Y17	Z17	X18	Y18	Z18	X19	Y19	Z19	X20	Y20	Z20	X21	Y21	Z21	X22	Y22	Z22	X23	Y23	Z23	X24	Y24	Z24	X25	Y25	Z25	X26	Y26	Z26	X27	Y27	Z27	X28	Y28	Z28	X29	Y29	Z29	X30	Y30	Z30	X31	Y31	Z31	X32	Y32	Z32	X33	Y33	Z33	X34	Y34	Z34	X35	Y35	Z35	X36	Y36	Z36	X37	Y37	Z37	X38	Y38	Z38	X39	Y39	Z39	X40	Y40	Z40	X41	Y41	Z41	X42	Y42	Z42	X43	Y43	Z43	X44	Y44	Z44	X45	Y45	Z45	X46	Y46	Z46	X47	Y47	Z47	X48	Y48	Z48	X49	Y49	Z49	X50	Y50	Z50	X51	Y51	Z51

1	0	-0.13323	1.546	-0.384312	-0.0310217	0.99832	-0.447165	-0.239707	1.05996	-0.372167	-0.384628	0.0294686	-0.462041	-0.121019	0.918099	-0.429029	-0.10972	0.93128	-0.403043	-0.0528517	1.45046	-0.53977	-0.00717322	1.44494	-0.379	-0.503983	0.134872	-0.442031	-0.570953	0.126137	-0.389663	-0.0531448	1.07286	-0.621259	-0.107976	1.05819	-0.56501	0.0544795	0.968352	-0.539702	-0.0321404	1.27304	-0.594044	-0.287861	0.539771	-0.482838	-0.369664	0.455669	-0.502665	-0.395452	0.337172	-0.511507	-0.291878	0.426393	-0.465964	-0.121892	0.750646	-0.509662	-0.158402	0.620502	-0.495034	-0.22868	0.77603	-0.535335	-0.266889	0.644594	-0.51004	-0.34833	0.0497608	-0.395047	0.117408	0.866875	-0.523789	0.0997683	0.849056	-0.566332	-0.133616	0.938334	-0.216974	-0.121514	0.923784	-0.226964	-0.0915574	1.49635	-0.18206	-0.0086032	1.45482	-0.332252	-0.199335	1.15676	-0.0304046	-0.219114	1.12709	-0.106361	-0.110763	1.00591	-0.00467769	-0.111125	1.33788	-0.0874171	-0.0838902	0.888184	0.0169037	-0.115526	0.883438	0.0462613	-0.0482245	1.01457	-0.180588	-0.246104	1.0559	-0.276653	0.255463	0.0495476	-0.155224	0.11079	0.0905693	-0.204941	0.0606657	0.0525185	-0.261244	0.0393355	0.540177	-0.171787	0.137919	0.325521	-0.204234	0.0417833	0.403526	-0.141971	0.0821223	0.293355	-0.150739	0.104816	0.432984	-0.180845	0.0511764	0.785194	-0.179741	0.0869052	0.680563	-0.197316	0.0669625	0.640595	-0.144597	-0.0287583	0.745717	-0.109188	0.0113258	0.637109	-0.134274	0.28803	0.0945823	-0.218131
2	0.01	-0.122053	1.54673	-0.378303	-0.0183212	0.998613	-0.44734	-0.228113	1.0592	-0.371487	-0.384046	0.0291336	-0.462254	-0.108614	0.918069	-0.428768	-0.0974499	0.930984	-0.402564	-0.0417548	1.45332	-0.535223	0.00425113	1.44602	-0.37429	-0.500217	0.138629	-0.443881	-0.56747	0.132353	-0.391484	-0.0475391	1.07627	-0.62116	-0.10304	1.06201	-0.565306	0.0559814	0.966913	-0.541248	-0.0230367	1.27555	-0.591193	-0.275334	0.539173	-0.483966	-0.358427	0.456546	-0.503764	-0.386876	0.338807	-0.512874	-0.281175	0.425467	-0.467293	-0.109947	0.750569	-0.510306	-0.146004	0.620192	-0.496161	-0.216446	0.77548	-0.53524	-0.254359	0.643873	-0.510638	-0.347203	0.0497052	-0.3955	0.115082	0.863134	-0.527311	0.0985561	0.847172	-0.570493	-0.120735	0.938214	-0.216676	-0.108907	0.924636	-0.226335	-0.080881	1.49373	-0.176665	0.00229432	1.45498	-0.32739	-0.187009	1.15175	-0.0293374	-0.206089	1.1225	-0.105539	-0.0983802	1.00084	-0.00425509	-0.0997149	1.33388	-0.0842525	-0.0714764	0.883093	0.0165841	-0.103223	0.878096	0.045711	-0.0354194	1.01464	-0.180604	-0.234334	1.05575	-0.275797	0.256593	0.0456387	-0.154581	0.114278	0.0908644	-0.204409	0.0626513	0.0547411	-0.261118	0.0539539	0.541878	-0.171385	0.149243	0.324962	-0.205688	0.0572031	0.405164	-0.141127	0.0947238	0.294005	-0.150162	0.118427	0.432811	-0.182617	0.0642221	0.78635	-0.179046	0.10012	0.681673	-0.196833	0.0802631	0.641636	-0.144125	-0.0159437	0.746451	-0.108788	0.0245608	0.638111	-0.133977	0.291259	0.0888031	-0.217841
3	0.02	-0.110803	1.54757	-0.372315	-0.00576567	0.999058	-0.447456	-0.216479	1.0586	-0.370855	-0.383377	0.0288304	-0.46245	-0.0961905	0.918165	-0.428439	-0.0851281	0.930874	-0.402064	-0.0304844	1.45639	-0.530652	0.0157627	1.44721	-0.369569	-0.496029	0.142588	-0.445715	-0.563465	0.138908	-0.393241	-0.0420241	1.07998	-0.620954	-0.0981321	1.0662	-0.565389	0.0573965	0.965812	-0.542905	-0.0139184	1.27832	-0.588461	-0.262271	0.538539	-0.485188	-0.346723	0.457484	-0.504876	-0.377953	0.340566	-0.514286	-0.270016	0.424521	-0.468744	-0.0977304	0.75061	-0.51089	-0.133159	0.619947	-0.497251	-0.204014	0.774935	-0.535103	-0.241454	0.643119	-0.511222	-0.346038	0.0495672	-0.395938	0.112599	0.859785	-0.531053	0.0970154	0.845662	-0.574845	-0.107832	0.938325	-0.216321	-0.0962092	0.925528	-0.225676	-0.0701307	1.49134	-0.171332	0.0132782	1.45526	-0.322536	-0.174593	1.14703	-0.0283418	-0.192996	1.11821	-0.104824	-0.0859156	0.996066	-0.00387119	-0.0882012	1.33013	-0.0811456	-0.0590168	0.878274	0.0162551	-0.0908995	0.873034	0.0451292	-0.0225904	1.015	-0.18054	-0.222501	1.0557	-0.274984	0.257616	0.0422494	-0.153996	0.117559	0.0911783	-0.204018	0.0644982	0.0568041	-0.261026	0.0685016	0.54354	-0.170975	0.160009	0.324239	-0.206984	0.0719572	0.406604	-0.140362	0.10658	0.294524	-0.149652	0.131641	0.432514	-0.18407	0.0773777	0.787805	-0.178372	0.113524	0.683152	-0.196327	0.0938486	0.643033	-0.143595	-0.00293894	0.747452	-0.108299	0.0380969	0.639375	-0.133549	0.294216	0.0834322	-0.21769
4	0.03	-0.0994606	1.54858	-0.366358	0.00659414	0.999708	-0.447488	-0.204792	1.05824	-0.370279	-0.382579	0.0285848	-0.462623	-0.083745	0.918435	-0.428016	-0.0727426	0.931019	-0.401536	-0.0189737	1.45971	-0.526044	0.0273651	1.44854	-0.364836	-0.491214	0.146841	-0.447522	-0.558695	0.145955	-0.394904	-0.0366395	1.08411	-0.6206	-0.0932601	1.07092	-0.565174	0.0586879	0.965188	-0.544723	-0.00478	1.28145	-0.585884	-0.248429	0.537842	-0.486548	-0.334333	0.458501	-0.506013	-0.368517	0.342504	-0.515764	-0.258192	0.423547	-0.470375	-0.0851187	0.750803	-0.511403	-0.119664	0.619781	-0.498311	-0.191293	0.774381	-0.534917	-0.228003	0.6423	-0.511803	-0.344807	0.0493131	-0.396349	0.109897	0.856995	-0.535108	0.0950151	0.844686	-0.579463	-0.0949038	0.938746	-0.215884	-0.0833851	0.92646	-0.224975	-0.0592777	1.48926	-0.166085	0.0243762	1.45572	-0.317693	-0.162062	1.14269	-0.0274407	-0.179812	1.11436	-0.104249	-0.0733454	0.991698	-0.00354009	-0.0765506	1.32675	-0.0781153	-0.046492	0.873841	0.0159112	-0.0785426	0.868365	0.0445022	-0.0097426	1.01576	-0.180364	-0.210583	1.05576	-0.274223	0.258495	0.0395447	-0.15349	0.120556	0.0915091	-0.203817	0.0661469	0.0586465	-0.26098	0.0828582	0.545109	-0.170557	0.169991	0.323294	-0.208059	0.0857273	0.407761	-0.139712	0.11738	0.294854	-0.14924	0.144257	0.432044	-0.185092	0.0906572	0.789597	-0.177705	0.127125	0.685042	-0.195776	0.107727	0.644828	-0.142981	0.0102828	0.748768	-0.1077	0.0519448	0.640936	-0.132949	0.296806	0.0786164	-0.217713
5	0.04	-0.0880225	1.54979	-0.360446	0.0186956	1.0006	-0.447403	-0.193051	1.05817	-0.369747	-0.381599	0.0284544	-0.462762	-0.0712931	0.918914	-0.427467	-0.0603048	0.931479	-0.400968	-0.00716944	1.46335	-0.521381	0.0390224	1.45	-0.360093	-0.485504	0.151498	-0.449292	-0.552855	0.153681	-0.396435	-0.0314302	1.08878	-0.620058	-0.0884242	1.0763	-0.564573	0.0598182	0.965193	-0.546766	0.00438246	1.28505	-0.583481	-0.233517	0.537035	-0.488102	-0.320976	0.459605	-0.507202	-0.358345	0.344676	-0.517334	-0.245442	0.422535	-0.472261	-0.0719624	0.751169	-0.511852	-0.105281	0.61969	-0.49938	-0.178169	0.773781	-0.534696	-0.213795	0.641356	-0.512426	-0.343468	0.0489202	-0.396711	0.106916	0.854954	-0.53958	0.0924269	0.844431	-0.584425	-0.0819613	0.939535	-0.215337	-0.0704136	0.927419	-0.224222	-0.0482947	1.48756	-0.160948	0.0356026	1.45639	-0.312872	-0.149411	1.13886	-0.0266473	-0.166524	1.11106	-0.103838	-0.0606568	0.987859	-0.00327352	-0.0647417	1.32384	-0.0751747	-0.0338796	0.869913	0.0155437	-0.0661301	0.864212	0.0438145	0.0030989	1.01698	-0.180047	-0.198557	1.05596	-0.273507	0.259198	0.0376377	-0.153082	0.123196	0.091844	-0.203845	0.0675296	0.0602103	-0.260995	0.0967628	0.546481	-0.170138	0.178953	0.322083	-0.208847	0.0981215	0.408544	-0.139224	0.126787	0.294932	-0.148969	0.156009	0.431351	-0.185599	0.104022	0.791638	-0.177004	0.140812	0.687223	-0.195144	0.121736	0.646913	-0.142264	0.023664	0.750367	-0.106985	0.0659397	0.642729	-0.132159	0.298944	0.0744922	-0.217918
6	0.05	-0.0765214	1.55121	-0.354593	0.0304753	1.0017	-0.447176	-0.181272	1.0584	-0.369209	-0.38039	0.0285378	-0.462869	-0.0588976	0.919586	-0.426768	-0.0478764	0.932248	-0.400339	0.00490138	1.46728	-0.516657	0.0506639	1.45158	-0.355356	-0.478691	0.156647	-0.451016	-0.545718	0.162211	-0.397816	-0.0264169	1.094	-0.619323	-0.083606	1.08235	-0.563559	0.0607819	0.965893	-0.549078	0.0135697	1.28911	-0.581223	-0.217348	0.536058	-0.489888	-0.306437	0.46077	-0.508481	-0.347229	0.347085	-0.51901	-0.231584	0.421476	-0.474442	-0.0581711	0.751687	-0.512276	-0.0898669	0.619642	-0.500542	-0.164565	0.773075	-0.534475	-0.19869	0.640212	-0.513172	-0.341957	0.0484264	-0.397009	0.103648	0.853766	-0.544518	0.089226	0.845006	-0.589757	-0.0690372	0.940674	-0.214657	-0.0573285	0.928377	-0.223412	-0.0371732	1.48626	-0.155938	0.0469354	1.45726	-0.308093	-0.136671	1.13557	-0.0259439	-0.153145	1.10835	-0.103566	-0.0478636	0.984588	-0.00306907	-0.052789	1.32143	-0.072314	-0.021161	0.86654	0.0151411	-0.0536353	0.860619	0.0430584	0.0158986	1.01864	-0.179593	-0.186425	1.05629	-0.272794	0.259716	0.0364723	-0.152769	0.125453	0.0921611	-0.204095	0.0686118	0.0614864	-0.261074	0.10988	0.547531	-0.169724	0.186812	0.320622	-0.209337	0.108912	0.408926	-0.138931	0.134673	0.294736	-0.148864	0.166699	0.430419	-0.185624	0.117354	0.79366	-0.176206	0.154328	0.689354	-0.194404	0.135506	0.648968	-0.14145	0.0370146	0.752075	-0.106187	0.0796907	0.644539	-0.131223	0.300625	0.0710905	-0.21825
7	0.06	-0.0650146	1.5528	-0.348809	0.0418599	1.00292	-0.446797	-0.169489	1.05888	-0.368585	-0.378909	0.0289843	-0.462959	-0.0466719	0.920389	-0.425905	-0.0355693	0.933255	-0.399617	0.0171228	1.47144	-0.511884	0.0622207	1.45324	-0.350652	-0.470647	0.162358	-0.452691	-0.53716	0.171613	-0.399065	-0.0215915	1.09973	-0.61843	-0.0787685	1.08897	-0.562164	0.0616104	0.967273	-0.551679	0.0227781	1.29356	-0.579046	-0.19986	0.534855	-0.491916	-0.290581	0.461945	-0.509894	-0.334971	0.349664	-0.52079	-0.216519	0.42036	-0.476916	-0.0437307	0.752307	-0.512736	-0.0733916	0.619596	-0.501909	-0.150452	0.772186	-0.534307	-0.182627	0.638794	-0.514134	-0.340199	0.0479553	-0.397241	0.10014	0.853446	-0.549918	0.0854949	0.846436	-0.595434	-0.0561762	0.942083	-0.213826	-0.0442183	0.929325	-0.222541	-0.0259188	1.48529	-0.151059	0.0583246	1.45829	-0.303381	-0.123896	1.13279	-0.025286	-0.139716	1.10616	-0.103368	-0.0349946	0.981844	-0.00291159	-0.0407314	1.31948	-0.0695052	-0.00831555	0.863694	0.0146882	-0.0410281	0.857551	0.0422339	0.0286324	1.02062	-0.179039	-0.174208	1.05673	-0.272011	0.260067	0.0358765	-0.152537	0.12735	0.0924408	-0.204525	0.0693973	0.062509	-0.261213	0.121902	0.548166	-0.169322	0.19364	0.318984	-0.209581	0.118096	0.40895	-0.138851	0.141137	0.294297	-0.148933	0.176252	0.429275	-0.185314	0.130482	0.795317	-0.175256	0.167347	0.691003	-0.193552	0.148569	0.65058	-0.140583	0.0500617	0.753645	-0.105359	0.0927035	0.646084	-0.130244	0.301906	0.0683594	-0.218625
8	0.07	-0.0535655	1.5545	-0.343104	0.0527851	1.00415	-0.446275	-0.157753	1.05956	-0.367785	-0.377109	0.0299936	-0.463064	-0.0347496	0.921251	-0.424876	-0.02352	0.934408	-0.398758	0.0293188	1.47574	-0.507098	0.0736481	1.45495	-0.346025	-0.46131	0.168698	-0.454321	-0.527118	0.181911	-0.400233	-0.0169253	1.10585	-0.617432	-0.0738637	1.09599	-0.560461	0.06236	0.969272	-0.554567	0.0319956	1.29829	-0.576878	-0.181091	0.533383	-0.494178	-0.273341	0.46307	-0.51149	-0.321372	0.35229	-0.522655	-0.200215	0.419176	-0.479628	-0.0286967	0.752981	-0.513289	-0.0559167	0.619523	-0.503586	-0.135844	0.771045	-0.534242	-0.165613	0.637049	-0.5154	-0.338105	0.0477134	-0.397434	0.096477	0.853959	-0.555735	0.0813858	0.848699	-0.601409	-0.0434189	0.943661	-0.21284	-0.0311946	0.930293	-0.221597	-0.0145412	1.48456	-0.146318	0.0697138	1.45944	-0.298772	-0.111137	1.13043	-0.024616	-0.126294	1.10442	-0.103158	-0.0220784	0.979544	-0.00278108	-0.0286108	1.31788	-0.0667156	0.00468119	0.8613	0.0141674	-0.0282788	0.854923	0.0413454	0.0413006	1.02275	-0.178446	-0.161944	1.05731	-0.271072	0.260279	0.0356577	-0.152372	0.128933	0.0926734	-0.205078	0.0699192	0.0633285	-0.261398	0.132641	0.548361	-0.168944	0.199591	0.317267	-0.209681	0.125859	0.408708	-0.138989	0.146426	0.293684	-0.149166	0.184706	0.427975	-0.184874	0.14324	0.796322	-0.17415	0.179586	0.691834	-0.192626	0.160545	0.651425	-0.139732	0.0625431	0.754868	-0.104563	0.104563	0.64714	-0.129354	0.30287	0.0662156	-0.218973
